# xmcd
#
# Track frame offsets:
#	150
#	20198
#	34801
#	55793
#	79551
#	108646
#	127709
#	148362
#	170185
#	193227
#	214457
#	234068
#	254184
#	268563
#	288631
#	306950
#
# Disc length: 4337 seconds
#
# Revision: 4
# Processed by: cddbd v1.5.2PL0 Copyright (c) Steve Scherf et al.
# Submitted via: audiograbber 1.83.01
#
DISCID=fc10ef10
DTITLE=Jeff Healey Band - Legacy: CD1
DYEAR=2009
DGENRE=Bluesrock
TTITLE0=See the light
TTITLE1=Confidence man
TTITLE2=Angel eyes
TTITLE3=Jeff Healey Band - George Harrison - Paul Shaffer - Jeff Lynne - While my 
TTITLE3=guitar gently weeps
TTITLE4=Jeff Healey Band - Mark Knopfler - I think I love you too much
TTITLE5=Full circle
TTITLE6=Cruel little number
TTITLE7=Heart of an angel
TTITLE8=Lost in your eyes
TTITLE9=It could all get blown away
TTITLE10=Leave the light on
TTITLE11=You're coming home
TTITLE12=I got a line on you
TTITLE13=Angel
TTITLE14=Stuck in the middle with you
TTITLE15=I tried
EXTD=Year: 2009   [CD2 from 3: 1 DVD and 2 CD's)
EXTT0=
EXTT1=
EXTT2=
EXTT3=
EXTT4=
EXTT5=
EXTT6=
EXTT7=
EXTT8=
EXTT9=
EXTT10=
EXTT11=
EXTT12=
EXTT13=
EXTT14=
EXTT15=
PLAYORDER=
